<svg width="200" height="56" viewBox="0 0 200 56" fill="none" xmlns="http://www.w3.org/2000/svg">
<rect width="12" height="32" fill="#CCE5FF"/>
<path d="M24.7188 18.9844V27H20.0312V4.25H28.9062C30.6146 4.25 32.1146 4.5625 33.4062 5.1875C34.7083 5.8125 35.7083 6.70312 36.4062 7.85938C37.1042 9.00521 37.4531 10.3125 37.4531 11.7812C37.4531 14.0104 36.6875 15.7708 35.1562 17.0625C33.6354 18.3438 31.526 18.9844 28.8281 18.9844H24.7188ZM24.7188 15.1875H28.9062C30.1458 15.1875 31.0885 14.8958 31.7344 14.3125C32.3906 13.7292 32.7188 12.8958 32.7188 11.8125C32.7188 10.6979 32.3906 9.79688 31.7344 9.10938C31.0781 8.42188 30.1719 8.06771 29.0156 8.04688H24.7188V15.1875ZM49.4294 18.6719H45.695V27H41.0075V4.25H49.4606C52.1481 4.25 54.221 4.84896 55.6794 6.04688C57.1377 7.24479 57.8669 8.9375 57.8669 11.125C57.8669 12.6771 57.5283 13.974 56.8512 15.0156C56.1846 16.0469 55.169 16.8698 53.8044 17.4844L58.7262 26.7812V27H53.695L49.4294 18.6719ZM45.695 14.875H49.4762C50.6533 14.875 51.5648 14.5781 52.2106 13.9844C52.8565 13.3802 53.1794 12.5521 53.1794 11.5C53.1794 10.4271 52.8721 9.58333 52.2575 8.96875C51.6533 8.35417 50.721 8.04688 49.4606 8.04688H45.695V14.875ZM73.5619 21.0312C73.5619 20.1458 73.2494 19.4688 72.6244 19C71.9994 18.5208 70.8744 18.0208 69.2494 17.5C67.6244 16.9688 66.3379 16.4479 65.39 15.9375C62.8067 14.5417 61.515 12.6615 61.515 10.2969C61.515 9.06771 61.8587 7.97396 62.5462 7.01562C63.2442 6.04688 64.239 5.29167 65.5306 4.75C66.8327 4.20833 68.291 3.9375 69.9056 3.9375C71.5306 3.9375 72.9785 4.23438 74.2494 4.82812C75.5202 5.41146 76.5046 6.23958 77.2025 7.3125C77.9108 8.38542 78.265 9.60417 78.265 10.9688H73.5775C73.5775 9.92708 73.2494 9.11979 72.5931 8.54688C71.9369 7.96354 71.015 7.67188 69.8275 7.67188C68.6817 7.67188 67.791 7.91667 67.1556 8.40625C66.5202 8.88542 66.2025 9.52083 66.2025 10.3125C66.2025 11.0521 66.5723 11.6719 67.3119 12.1719C68.0619 12.6719 69.1608 13.1406 70.6087 13.5781C73.2754 14.3802 75.2181 15.375 76.4369 16.5625C77.6556 17.75 78.265 19.2292 78.265 21C78.265 22.9688 77.5202 24.5156 76.0306 25.6406C74.541 26.7552 72.5358 27.3125 70.015 27.3125C68.265 27.3125 66.6712 26.9948 65.2337 26.3594C63.7962 25.7135 62.6973 24.8333 61.9369 23.7188C61.1869 22.6042 60.8119 21.3125 60.8119 19.8438H65.515C65.515 22.3542 67.015 23.6094 70.015 23.6094C71.1296 23.6094 71.9994 23.3854 72.6244 22.9375C73.2494 22.4792 73.5619 21.8438 73.5619 21.0312Z" fill="#FFFFFF"/>
<path d="M3.13281 44.7734V49H1.15625V37.625H5.50781C6.77865 37.625 7.78646 37.9557 8.53125 38.6172C9.28125 39.2786 9.65625 40.1536 9.65625 41.2422C9.65625 42.3568 9.28906 43.224 8.55469 43.8438C7.82552 44.4635 6.80208 44.7734 5.48438 44.7734H3.13281ZM3.13281 43.1875H5.50781C6.21094 43.1875 6.7474 43.0234 7.11719 42.6953C7.48698 42.362 7.67188 41.8828 7.67188 41.2578C7.67188 40.6432 7.48438 40.1536 7.10938 39.7891C6.73438 39.4193 6.21875 39.2292 5.5625 39.2188H3.13281V43.1875ZM10.9022 44.6953C10.9022 43.8672 11.0662 43.1224 11.3944 42.4609C11.7225 41.7943 12.1834 41.2839 12.7772 40.9297C13.3709 40.5703 14.0532 40.3906 14.8241 40.3906C15.9647 40.3906 16.8892 40.7578 17.5975 41.4922C18.311 42.2266 18.6965 43.2005 18.7537 44.4141L18.7616 44.8594C18.7616 45.6927 18.6001 46.4375 18.2772 47.0938C17.9595 47.75 17.5011 48.2578 16.9022 48.6172C16.3084 48.9766 15.6209 49.1562 14.8397 49.1562C13.647 49.1562 12.6912 48.7604 11.9725 47.9688C11.259 47.1719 10.9022 46.112 10.9022 44.7891V44.6953ZM12.8006 44.8594C12.8006 45.7292 12.9803 46.4115 13.3397 46.9062C13.6991 47.3958 14.1991 47.6406 14.8397 47.6406C15.4803 47.6406 15.9777 47.3906 16.3319 46.8906C16.6912 46.3906 16.8709 45.6589 16.8709 44.6953C16.8709 43.8411 16.686 43.1641 16.3162 42.6641C15.9517 42.1641 15.4543 41.9141 14.8241 41.9141C14.2043 41.9141 13.7121 42.1615 13.3475 42.6562C12.9829 43.1458 12.8006 43.8802 12.8006 44.8594ZM24.9528 42.2812C24.7028 42.2396 24.445 42.2188 24.1794 42.2188C23.3096 42.2188 22.7236 42.5521 22.4216 43.2188V49H20.5231V40.5469H22.3356L22.3825 41.4922C22.8408 40.7578 23.4762 40.3906 24.2887 40.3906C24.5596 40.3906 24.7835 40.4271 24.9606 40.5L24.9528 42.2812ZM29.0816 38.4922V40.5469H30.5737V41.9531H29.0816V46.6719C29.0816 46.9948 29.1441 47.2292 29.2691 47.375C29.3993 47.5156 29.6284 47.5859 29.9566 47.5859C30.1753 47.5859 30.3967 47.5599 30.6206 47.5078V48.9766C30.1883 49.0964 29.7717 49.1562 29.3706 49.1562C27.9123 49.1562 27.1831 48.3516 27.1831 46.7422V41.9531H25.7925V40.5469H27.1831V38.4922H29.0816ZM37.2416 49C37.1582 48.8385 37.0853 48.5755 37.0228 48.2109C36.4186 48.8411 35.6791 49.1562 34.8041 49.1562C33.9551 49.1562 33.2624 48.9141 32.7259 48.4297C32.1895 47.9453 31.9212 47.3464 31.9212 46.6328C31.9212 45.7318 32.2546 45.0417 32.9212 44.5625C33.5931 44.0781 34.5515 43.8359 35.7962 43.8359H36.9603V43.2812C36.9603 42.8438 36.8379 42.4948 36.5931 42.2344C36.3483 41.9688 35.9759 41.8359 35.4759 41.8359C35.0436 41.8359 34.6895 41.9453 34.4134 42.1641C34.1374 42.3776 33.9994 42.651 33.9994 42.9844H32.1009C32.1009 42.5208 32.2546 42.0885 32.5619 41.6875C32.8692 41.2812 33.2858 40.9635 33.8119 40.7344C34.3431 40.5052 34.9343 40.3906 35.5853 40.3906C36.5749 40.3906 37.364 40.6406 37.9525 41.1406C38.541 41.6354 38.8431 42.3333 38.8587 43.2344V47.0469C38.8587 47.8073 38.9655 48.4141 39.1791 48.8672V49H37.2416ZM35.1556 47.6328C35.5306 47.6328 35.8822 47.5417 36.2103 47.3594C36.5436 47.1771 36.7936 46.9323 36.9603 46.625V45.0312H35.9369C35.2337 45.0312 34.7051 45.1536 34.3509 45.3984C33.9968 45.6432 33.8197 45.9896 33.8197 46.4375C33.8197 46.8021 33.9395 47.0938 34.1791 47.3125C34.4239 47.526 34.7494 47.6328 35.1556 47.6328ZM43.0266 49H41.1281V37H43.0266V49ZM53.7684 44.6172H51.5653V49H49.5887V37.625H53.5887C54.9012 37.625 55.9143 37.9193 56.6278 38.5078C57.3414 39.0964 57.6981 39.9479 57.6981 41.0625C57.6981 41.8229 57.5132 42.4609 57.1434 42.9766C56.7789 43.487 56.2684 43.8802 55.6122 44.1562L58.1669 48.8984V49H56.0497L53.7684 44.6172ZM51.5653 43.0312H53.5966C54.2632 43.0312 54.7841 42.8646 55.1591 42.5312C55.5341 42.1927 55.7216 41.7318 55.7216 41.1484C55.7216 40.5391 55.5471 40.0677 55.1981 39.7344C54.8544 39.401 54.3387 39.2292 53.6512 39.2188H51.5653V43.0312ZM63.2722 49.1562C62.0691 49.1562 61.0925 48.7786 60.3425 48.0234C59.5977 47.263 59.2253 46.2526 59.2253 44.9922V44.7578C59.2253 43.9141 59.3868 43.1615 59.7097 42.5C60.0378 41.8333 60.4961 41.3151 61.0847 40.9453C61.6732 40.5755 62.3295 40.3906 63.0534 40.3906C64.2045 40.3906 65.0925 40.7578 65.7175 41.4922C66.3477 42.2266 66.6628 43.2656 66.6628 44.6094V45.375H61.1394C61.1967 46.0729 61.4284 46.625 61.8347 47.0312C62.2461 47.4375 62.7618 47.6406 63.3816 47.6406C64.2514 47.6406 64.9597 47.2891 65.5066 46.5859L66.53 47.5625C66.1915 48.0677 65.7383 48.4609 65.1706 48.7422C64.6081 49.0182 63.9753 49.1562 63.2722 49.1562ZM63.0456 41.9141C62.5248 41.9141 62.1029 42.0964 61.78 42.4609C61.4623 42.8255 61.2592 43.3333 61.1706 43.9844H64.7878V43.8438C64.7461 43.2083 64.5769 42.7292 64.28 42.4062C63.9831 42.0781 63.5717 41.9141 63.0456 41.9141ZM70.2838 40.5469V49.75C70.2838 50.6146 70.0676 51.2734 69.6353 51.7266C69.2082 52.1849 68.5806 52.4141 67.7525 52.4141C67.4035 52.4141 67.0676 52.3698 66.7447 52.2812V50.7812C66.9426 50.8281 67.1666 50.8516 67.4166 50.8516C68.0468 50.8516 68.3697 50.5078 68.3853 49.8203V40.5469H70.2838ZM68.2213 38.3516C68.2213 38.0599 68.3124 37.8177 68.4947 37.625C68.6822 37.4323 68.9478 37.3359 69.2916 37.3359C69.6353 37.3359 69.9009 37.4323 70.0884 37.625C70.2759 37.8177 70.3697 38.0599 70.3697 38.3516C70.3697 38.638 70.2759 38.8776 70.0884 39.0703C69.9009 39.2578 69.6353 39.3516 69.2916 39.3516C68.9478 39.3516 68.6822 39.2578 68.4947 39.0703C68.3124 38.8776 68.2213 38.638 68.2213 38.3516ZM76.2016 49.1562C74.9984 49.1562 74.0219 48.7786 73.2719 48.0234C72.5271 47.263 72.1547 46.2526 72.1547 44.9922V44.7578C72.1547 43.9141 72.3161 43.1615 72.6391 42.5C72.9672 41.8333 73.4255 41.3151 74.0141 40.9453C74.6026 40.5755 75.2589 40.3906 75.9828 40.3906C77.1339 40.3906 78.0219 40.7578 78.6469 41.4922C79.2771 42.2266 79.5922 43.2656 79.5922 44.6094V45.375H74.0687C74.126 46.0729 74.3578 46.625 74.7641 47.0312C75.1755 47.4375 75.6911 47.6406 76.3109 47.6406C77.1807 47.6406 77.8891 47.2891 78.4359 46.5859L79.4594 47.5625C79.1208 48.0677 78.6677 48.4609 78.1 48.7422C77.5375 49.0182 76.9047 49.1562 76.2016 49.1562ZM75.975 41.9141C75.4542 41.9141 75.0323 42.0964 74.7094 42.4609C74.3917 42.8255 74.1885 43.3333 74.1 43.9844H77.7172V43.8438C77.6755 43.2083 77.5062 42.7292 77.2094 42.4062C76.9125 42.0781 76.501 41.9141 75.975 41.9141ZM85.9709 46.7031C85.9709 46.3646 85.8303 46.1068 85.5491 45.9297C85.273 45.7526 84.8121 45.5964 84.1663 45.4609C83.5204 45.3255 82.9814 45.1536 82.5491 44.9453C81.6011 44.487 81.1272 43.8229 81.1272 42.9531C81.1272 42.224 81.4345 41.6146 82.0491 41.125C82.6636 40.6354 83.4449 40.3906 84.3928 40.3906C85.4032 40.3906 86.2183 40.6406 86.8381 41.1406C87.4631 41.6406 87.7756 42.2891 87.7756 43.0859H85.8772C85.8772 42.7214 85.7418 42.4193 85.4709 42.1797C85.2001 41.9349 84.8407 41.8125 84.3928 41.8125C83.9761 41.8125 83.635 41.9089 83.3694 42.1016C83.109 42.2943 82.9788 42.5521 82.9788 42.875C82.9788 43.1667 83.1011 43.3932 83.3459 43.5547C83.5907 43.7161 84.0855 43.8802 84.8303 44.0469C85.5751 44.2083 86.1584 44.4036 86.5803 44.6328C87.0074 44.8568 87.3225 45.1276 87.5256 45.4453C87.734 45.763 87.8381 46.1484 87.8381 46.6016C87.8381 47.362 87.523 47.9792 86.8928 48.4531C86.2626 48.9219 85.4371 49.1562 84.4163 49.1562C83.7235 49.1562 83.1064 49.0312 82.5647 48.7812C82.023 48.5312 81.6011 48.1875 81.2991 47.75C80.997 47.3125 80.8459 46.8411 80.8459 46.3359H82.6897C82.7157 46.7839 82.885 47.1302 83.1975 47.375C83.51 47.6146 83.9241 47.7344 84.4397 47.7344C84.9397 47.7344 85.3199 47.6406 85.5803 47.4531C85.8407 47.2604 85.9709 47.0104 85.9709 46.7031ZM92.0372 38.4922V40.5469H93.5294V41.9531H92.0372V46.6719C92.0372 46.9948 92.0997 47.2292 92.2247 47.375C92.3549 47.5156 92.5841 47.5859 92.9122 47.5859C93.1309 47.5859 93.3523 47.5599 93.5762 47.5078V48.9766C93.144 49.0964 92.7273 49.1562 92.3262 49.1562C90.8679 49.1562 90.1387 48.3516 90.1387 46.7422V41.9531H88.7481V40.5469H90.1387V38.4922H92.0372ZM99.5722 42.2812C99.3222 42.2396 99.0644 42.2188 98.7988 42.2188C97.929 42.2188 97.343 42.5521 97.0409 43.2188V49H95.1425V40.5469H96.955L97.0019 41.4922C97.4602 40.7578 98.0956 40.3906 98.9081 40.3906C99.179 40.3906 99.4029 40.4271 99.58 40.5L99.5722 42.2812ZM100.295 44.6953C100.295 43.8672 100.459 43.1224 100.787 42.4609C101.115 41.7943 101.576 41.2839 102.17 40.9297C102.763 40.5703 103.446 40.3906 104.217 40.3906C105.357 40.3906 106.282 40.7578 106.99 41.4922C107.704 42.2266 108.089 43.2005 108.146 44.4141L108.154 44.8594C108.154 45.6927 107.993 46.4375 107.67 47.0938C107.352 47.75 106.894 48.2578 106.295 48.6172C105.701 48.9766 105.013 49.1562 104.232 49.1562C103.039 49.1562 102.084 48.7604 101.365 47.9688C100.651 47.1719 100.295 46.112 100.295 44.7891V44.6953ZM102.193 44.8594C102.193 45.7292 102.373 46.4115 102.732 46.9062C103.092 47.3958 103.592 47.6406 104.232 47.6406C104.873 47.6406 105.37 47.3906 105.724 46.8906C106.084 46.3906 106.263 45.6589 106.263 44.6953C106.263 43.8411 106.079 43.1641 105.709 42.6641C105.344 42.1641 104.847 41.9141 104.217 41.9141C103.597 41.9141 103.105 42.1615 102.74 42.6562C102.375 43.1458 102.193 43.8802 102.193 44.8594ZM104.74 37H106.904L104.74 39.3672H103.217L104.74 37ZM117.345 46.3828L118.689 40.5469H120.541L118.236 49H116.673L114.861 43.1953L113.08 49H111.517L109.205 40.5469H111.056L112.423 46.3203L114.158 40.5469H115.588L117.345 46.3828ZM132.243 46.0703C132.243 45.5703 132.066 45.1849 131.712 44.9141C131.363 44.6432 130.73 44.3698 129.814 44.0938C128.897 43.8177 128.168 43.5104 127.626 43.1719C126.59 42.5208 126.072 41.6719 126.072 40.625C126.072 39.7083 126.444 38.9531 127.189 38.3594C127.939 37.7656 128.91 37.4688 130.103 37.4688C130.894 37.4688 131.6 37.6146 132.22 37.9062C132.84 38.1979 133.327 38.6146 133.681 39.1562C134.035 39.6927 134.212 40.2891 134.212 40.9453H132.243C132.243 40.3516 132.056 39.888 131.681 39.5547C131.311 39.2161 130.78 39.0469 130.087 39.0469C129.441 39.0469 128.939 39.1849 128.579 39.4609C128.225 39.737 128.048 40.1224 128.048 40.6172C128.048 41.0339 128.241 41.3828 128.626 41.6641C129.012 41.9401 129.647 42.2109 130.533 42.4766C131.418 42.737 132.129 43.0365 132.665 43.375C133.202 43.7083 133.595 44.0938 133.845 44.5312C134.095 44.9635 134.22 45.4714 134.22 46.0547C134.22 47.0026 133.855 47.7578 133.126 48.3203C132.402 48.8776 131.418 49.1562 130.173 49.1562C129.35 49.1562 128.592 49.0052 127.9 48.7031C127.212 48.3958 126.676 47.974 126.29 47.4375C125.91 46.901 125.72 46.276 125.72 45.5625H127.697C127.697 46.2083 127.91 46.7083 128.337 47.0625C128.764 47.4167 129.376 47.5938 130.173 47.5938C130.861 47.5938 131.376 47.4557 131.72 47.1797C132.069 46.8984 132.243 46.5286 132.243 46.0703ZM140.95 48.9453C140.893 48.8151 140.831 48.5703 140.763 48.2109C140.159 48.8411 139.419 49.1562 138.544 49.1562C137.695 49.1562 137.002 48.9141 136.466 48.4297C135.929 47.9453 135.661 47.3464 135.661 46.6328C135.661 45.7318 135.995 45.0417 136.661 44.5625C137.333 44.0781 138.291 43.8359 139.536 43.8359H140.7V43.2812C140.7 42.8438 140.578 42.4948 140.333 42.2344C140.088 41.9688 139.716 41.8359 139.216 41.8359C138.784 41.8359 138.429 41.9453 138.153 42.1641C137.877 42.3776 137.739 42.651 137.739 42.9844H135.841C135.841 42.5208 135.995 42.0885 136.302 41.6875C136.609 41.2812 137.026 40.9635 137.552 40.7344C138.083 40.5052 138.674 40.3906 139.325 40.3906C140.315 40.3906 141.104 40.6406 141.693 41.1406C142.281 41.6354 142.583 42.3333 142.599 43.2344V47.0469C142.599 47.8073 142.706 48.4141 142.919 48.8672V49H142.591C142.138 49.2917 141.815 49.5599 141.622 49.8047C141.429 50.0495 141.333 50.2995 141.333 50.5547C141.333 50.9089 141.518 51.0859 141.888 51.0859C142.117 51.0859 142.351 51.026 142.591 50.9062L142.755 52.0156C142.375 52.2448 141.945 52.3594 141.466 52.3594C140.971 52.3594 140.573 52.2161 140.271 51.9297C139.969 51.6432 139.818 51.263 139.818 50.7891C139.818 50.0599 140.195 49.4453 140.95 48.9453ZM138.896 47.6328C139.271 47.6328 139.622 47.5417 139.95 47.3594C140.284 47.1771 140.534 46.9323 140.7 46.625V45.0312H139.677C138.974 45.0312 138.445 45.1536 138.091 45.3984C137.737 45.6432 137.56 45.9896 137.56 46.4375C137.56 46.8021 137.679 47.0938 137.919 47.3125C138.164 47.526 138.489 47.6328 138.896 47.6328ZM144.392 44.7109C144.392 43.4089 144.694 42.3646 145.298 41.5781C145.902 40.7865 146.712 40.3906 147.727 40.3906C148.623 40.3906 149.347 40.7031 149.899 41.3281V37H151.798V49H150.079L149.985 48.125C149.418 48.8125 148.66 49.1562 147.712 49.1562C146.722 49.1562 145.92 48.7578 145.306 47.9609C144.696 47.1641 144.392 46.0807 144.392 44.7109ZM146.29 44.875C146.29 45.7344 146.454 46.4062 146.782 46.8906C147.116 47.3698 147.587 47.6094 148.196 47.6094C148.972 47.6094 149.54 47.263 149.899 46.5703V42.9609C149.55 42.2839 148.988 41.9453 148.212 41.9453C147.597 41.9453 147.123 42.1901 146.79 42.6797C146.457 43.1641 146.29 43.8958 146.29 44.875ZM153.583 44.6953C153.583 43.8672 153.747 43.1224 154.075 42.4609C154.403 41.7943 154.864 41.2839 155.458 40.9297C156.052 40.5703 156.734 40.3906 157.505 40.3906C158.645 40.3906 159.57 40.7578 160.278 41.4922C160.992 42.2266 161.377 43.2005 161.434 44.4141L161.442 44.8594C161.442 45.6927 161.281 46.4375 160.958 47.0938C160.64 47.75 160.182 48.2578 159.583 48.6172C158.989 48.9766 158.302 49.1562 157.52 49.1562C156.328 49.1562 155.372 48.7604 154.653 47.9688C153.94 47.1719 153.583 46.112 153.583 44.7891V44.6953ZM155.481 44.8594C155.481 45.7292 155.661 46.4115 156.02 46.9062C156.38 47.3958 156.88 47.6406 157.52 47.6406C158.161 47.6406 158.658 47.3906 159.012 46.8906C159.372 46.3906 159.552 45.6589 159.552 44.6953C159.552 43.8411 159.367 43.1641 158.997 42.6641C158.632 42.1641 158.135 41.9141 157.505 41.9141C156.885 41.9141 156.393 42.1615 156.028 42.6562C155.664 43.1458 155.481 43.8802 155.481 44.8594ZM170.633 46.3828L171.977 40.5469H173.829L171.524 49H169.962L168.149 43.1953L166.368 49H164.805L162.493 40.5469H164.344L165.712 46.3203L167.446 40.5469H168.876L170.633 46.3828ZM178.215 46.2812L179.934 40.5469H181.958L178.598 50.2812C178.083 51.7031 177.208 52.4141 175.973 52.4141C175.697 52.4141 175.392 52.3672 175.059 52.2734V50.8047L175.418 50.8281C175.898 50.8281 176.257 50.7396 176.497 50.5625C176.741 50.3906 176.934 50.099 177.075 49.6875L177.348 48.9609L174.379 40.5469H176.426L178.215 46.2812ZM186.578 47.6406C187.052 47.6406 187.446 47.5026 187.758 47.2266C188.071 46.9505 188.237 46.6094 188.258 46.2031H190.047C190.026 46.7292 189.862 47.2214 189.555 47.6797C189.248 48.1328 188.831 48.4922 188.305 48.7578C187.779 49.0234 187.211 49.1562 186.602 49.1562C185.42 49.1562 184.482 48.7734 183.789 48.0078C183.097 47.2422 182.75 46.1849 182.75 44.8359V44.6406C182.75 43.3542 183.094 42.3255 183.782 41.5547C184.469 40.7786 185.407 40.3906 186.594 40.3906C187.599 40.3906 188.417 40.6849 189.047 41.2734C189.683 41.8568 190.016 42.625 190.047 43.5781H188.258C188.237 43.0938 188.071 42.6953 187.758 42.3828C187.451 42.0703 187.058 41.9141 186.578 41.9141C185.964 41.9141 185.49 42.138 185.157 42.5859C184.823 43.0286 184.654 43.7031 184.649 44.6094V44.9141C184.649 45.8307 184.813 46.5156 185.141 46.9688C185.474 47.4167 185.953 47.6406 186.578 47.6406ZM193.512 41.4688C194.132 40.75 194.916 40.3906 195.863 40.3906C197.666 40.3906 198.58 41.4193 198.606 43.4766V49H196.707V43.5469C196.707 42.9635 196.58 42.5521 196.324 42.3125C196.074 42.0677 195.705 41.9453 195.215 41.9453C194.455 41.9453 193.887 42.2839 193.512 42.9609V49H191.613V37H193.512V41.4688Z" fill="#FFFFFF"/>
</svg>
